#define threecol_width 12
#define threecol_height 12
static unsigned char threecol_bits[] = {
   0x00, 0x00, 0x06, 0x03, 0x76, 0x03, 0x76, 0x03, 0x76, 0x03, 0x06, 0x03,
   0x06, 0x03, 0x76, 0x03, 0x76, 0x03, 0x76, 0x03, 0x06, 0x03, 0x00, 0x00 };
